# xmcd
#
# Track frame offsets:
#	150
#	26693
#	49966
#	84314
#	117828
#	153625
#
# Disc length: 2963 seconds
#
# Revision: 1
# Processed by: cddbd v1.5.2PL0 Copyright (c) Steve Scherf et al.
# Submitted via: EasyCDDAExtractor 9.0.0.1
#
DISCID=450b9106
DTITLE=Judas Priest - Warnor's Theater Fresno 19-04-78 Master
DYEAR=1978
DGENRE=Hard Rock
TTITLE0=Exciter
TTITLE1=White Heat Red Hot
TTITLE2=Sinner
TTITLE3=Beyond The Realms Of Death
TTITLE4=Victim Of Changes
TTITLE5=Genocide
EXTD=
EXTT0=
EXTT1=
EXTT2=
EXTT3=
EXTT4=
EXTT5=
PLAYORDER=
